Coordinates
version=1
nRows=12
nColumns=24
inDegrees=yes

Units are S.I. units (second, meters, Newtons, ...)
Angles are in degrees.

endheader
time	pelvis_tilt	pelvis_list	pelvis_rotation	pelvis_tx	pelvis_ty	pelvis_tz	hip_flexion_r	hip_adduction_r	hip_rotation_r	knee_angle_r	ankle_angle_r	subtalar_angle_r	mtp_angle_r	hip_flexion_l	hip_adduction_l	hip_rotation_l	knee_angle_l	ankle_angle_l	subtalar_angle_l	mtp_angle_l	lumbar_extension	lumbar_bending	lumbar_rotation
      3.40500000	    -11.73705273	     -2.49777454	     -5.15591344	     -1.24691083	     -0.01543441	     -0.19478748	      5.36068247	      4.99363741	      4.89525583	     -8.23305585	      5.16963921	     -9.04326566	     10.59824485	     38.97081965	     -6.93257549	     -6.79855974	    -52.02031680	     -5.40691502	     -7.84856725	     13.08718417	      6.21801881	      4.40259522	      2.57764531
      3.41000000	    -11.67632705	     -2.37392744	     -5.34344683	     -1.24012214	     -0.01610167	     -0.19466203	      4.73129625	      4.83017458	      4.98124747	     -7.97209441	      5.43064267	     -8.93680957	     10.67431028	     39.27735699	     -6.92379920	     -6.82969843	    -50.68948486	     -5.17067703	     -7.53812679	     13.08663818	      6.08537897	      4.24297150	      2.86950756
      3.41500000	    -11.75651756	     -2.28524739	     -5.43539874	     -1.23331282	     -0.01700742	     -0.19463397	      4.25897694	      4.71496695	      4.98689558	     -7.72793257	      5.64526293	     -8.95837312	     10.70520090	     39.74938109	     -6.89100868	     -6.72270728	    -49.33020068	     -5.00633099	     -7.27654539	     13.06733667	      6.11417668	      4.10266002	      3.06874203
      3.42000000	    -11.73517967	     -2.15648037	     -5.60475260	     -1.22648644	     -0.01780811	     -0.19447711	      3.68068872	      4.54939776	      5.05363970	     -7.48496000	      5.90127837	     -8.86339374	     10.77302546	     40.03983865	     -6.89558173	     -6.75063447	    -47.89106193	     -4.76270427	     -6.91872740	     13.00834293	      6.03422923	      3.91865293	      3.30262799
      3.42500000	    -11.72147447	     -2.04173764	     -5.73397740	     -1.21970394	     -0.01868182	     -0.19442115	      3.12021610	      4.39423203	      5.05671744	     -7.25519721	      6.16260936	     -8.79921101	     10.84279377	     40.32397928	     -6.87990056	     -6.71488006	    -46.40726831	     -4.55022056	     -6.61740644	     12.86054110	      5.95457741	      3.75452326	      3.55918969
      3.43000000	    -11.80062133	     -1.94460440	     -5.83806768	     -1.21297169	     -0.01968174	     -0.19437697	      2.69021618	      4.27527502	      4.99751131	     -7.07607140	      6.36423281	     -8.80638887	     10.87950537	     40.68849236	     -6.86903210	     -6.60353868	    -44.87067421	     -4.38330758	     -6.32827858	     12.74552097	      5.96433799	      3.59686771	      3.74989774
      3.43500000	    -11.72800731	     -1.81260491	     -5.98629080	     -1.20623068	     -0.02052620	     -0.19430880	      2.09565226	      4.09447838	      4.91124088	     -6.88888952	      6.65494367	     -8.61995078	     10.98184326	     40.82508693	     -6.85832958	     -6.59746718	    -43.27027394	     -4.14901901	     -6.03539789	     12.35432790	      5.81056077	      3.39971978	      4.04189583
      3.44000000	    -11.74256775	     -1.68808088	     -6.07996908	     -1.19945399	     -0.02151028	     -0.19431187	      1.60170386	      3.92962229	      4.73631459	     -6.71863747	      6.93355902	     -8.45104643	     11.09162051	     41.03940968	     -6.82523373	     -6.52744492	    -41.63970909	     -3.91235857	     -5.75138803	     11.76464788	      5.75972931	      3.21068813	      4.23701253
      3.44500000	    -11.77745473	     -1.57635493	     -6.16740302	     -1.19269199	     -0.02254018	     -0.19431623	      1.13888088	      3.78477098	      4.50730107	     -6.56343934	      7.19218404	     -8.27631818	     11.20658374	     41.24848700	     -6.80838218	     -6.44387111	    -39.98292822	     -3.67228848	     -5.47642582	     11.01131788	      5.72677589	      3.02937437	      4.42682291
      3.45000000	    -11.94271540	     -1.56267589	     -6.24238494	     -1.18598503	     -0.02377299	     -0.19427824	      0.80562944	      3.78096994	      4.30945793	     -6.39483624	      7.29432590	     -8.34308403	     11.20859302	     41.60384868	     -6.90275531	     -6.28151110	    -38.32799633	     -3.59237606	     -5.25487182	     10.88025314	      5.81648730	      2.95144392	      4.61067188
      3.45500000	    -11.97977573	     -1.41607714	     -6.29342547	     -1.17917438	     -0.02482575	     -0.19439590	      0.37889200	      3.58797354	      3.84009320	     -6.29726181	      7.64103157	     -7.90551899	     11.52745205	     41.76258868	     -6.82743287	     -6.19739722	    -36.69446662	     -2.99412303	     -4.83964596	      8.19756214	      5.79619633	      2.73006454	      4.73656310
      3.46000000	    -11.98010080	     -1.30803952	     -6.38227047	     -1.17241820	     -0.02584433	     -0.19434050	     -0.11429283	      3.45813008	      3.57784249	     -6.15092333	      7.80524475	     -7.81991844	     11.56376692	     41.82715151	     -6.84099147	     -6.13020312	    -34.93707276	     -2.94264625	     -4.71671173	      7.93481413	      5.72101757	      2.53176853	      4.93213358
